<?xml version="1.0" encoding="utf-8"?>
<!-- Generator: Adobe Illustrator 16.0.0, SVG Export Plug-In . SVG Version: 6.00 Build 0)  -->
<!DOCTYPE svg PUBLIC "-//W3C//DTD SVG 1.1//EN" "http://www.w3.org/Graphics/SVG/1.1/DTD/svg11.dtd">
<svg version="1.1" xmlns="http://www.w3.org/2000/svg" xmlns:xlink="http://www.w3.org/1999/xlink" x="0px" y="0px" width="150px"
	 height="150px" viewBox="0 0 150 150" enable-background="new 0 0 150 150" xml:space="preserve">
<g id="Layer_1">
	<g>
		<polygon fill="#FFFFFF" points="8.513,141.797 8.513,8.823 90.607,8.823 141.487,59.702 141.487,141.797 		"/>
		<path fill="#50BB7C" d="M89.364,11.823l49.123,49.122v77.852H11.513V11.823H89.364 M91.85,5.823H5.513v138.974h138.974V58.459
			L91.85,5.823L91.85,5.823z"/>
	</g>
	<path fill="#50BB7C" d="M91.334,3.547H3.237v143.525h143.525V58.976L91.334,3.547z M142.358,142.668H7.643V7.952h83.691v51.024
		h51.024V142.668z"/>
	<path d="M87.624,8"/>
	<g>
		<path fill="#50BB7C" d="M37.046,107.207h-8.748v17.112h-8.876V78.855h17.624c9.386,0,15.005,6.45,15.005,14.175
			C52.052,100.757,46.433,107.207,37.046,107.207z M36.599,86.773h-8.301v12.452h8.301c4.023,0,6.577-2.49,6.577-6.195
			C43.176,89.327,40.622,86.773,36.599,86.773z"/>
		<path fill="#50BB7C" d="M83.656,124.319l-8.876-18.135h-6.385v18.135H59.52V78.855h17.815c9.258,0,14.75,6.321,14.75,13.92
			c0,6.386-3.895,10.345-8.301,11.941l10.153,19.603H83.656z M76.761,86.773h-8.365v12.004h8.365c3.895,0,6.448-2.49,6.448-6.002
			S80.655,86.773,76.761,86.773z"/>
		<path fill="#50BB7C" d="M101.278,124.319V78.855h29.946v7.918h-21.072v10.663h17.944v7.918h-17.944v11.047h21.072v7.918H101.278z"
			/>
	</g>
</g>
<g id="Layer_2">
</g>
</svg>
